<svg xmlns="http://www.w3.org/2000/svg" width="500" height="300" baseProfile="full" version="1.1"><defs><mask id="slice-mask-57b0b9dc-95fc-49ac-9e20-b130b6639533-0"><path fill="#fff" d="M 261.4624153612051 60.73291180907037 A 90 90 0 0 0 250 60 L 250 26.333333333333343 A 123.66666666666666 123.66666666666666 0 0 1 265.7502077741003 27.34040844875966 Z"/></mask><mask id="slice-mask-57b0b9dc-95fc-49ac-9e20-b130b6639533-1"><path fill="#fff" d="M 307.85088487178854 81.05600011929197 A 90 90 0 0 0 261.4624153612051 60.73291180907037 L 265.7502077741003 27.34040844875966 A 123.66666666666666 123.66666666666666 0 0 1 329.49140106456866 55.265837200953044 Z"/></mask><mask id="slice-mask-57b0b9dc-95fc-49ac-9e20-b130b6639533-2"><path fill="#fff" d="M 330.13834180359106 109.03847936207922 A 90 90 0 0 0 307.85088487178854 81.05600011929197 L 329.49140106456866 55.265837200953044 A 123.66666666666666 123.66666666666666 0 0 1 360.116017811601 93.71583645678291 Z"/></mask><mask id="slice-mask-57b0b9dc-95fc-49ac-9e20-b130b6639533-3"><path fill="#fff" d="M 249.99999999999997 60 A 90 90 0 1 0 330.13834180359106 109.03847936207922 L 360.116017811601 93.71583645678291 A 123.66666666666666 123.66666666666666 0 1 1 249.99999999999997 26.333333333333343 Z"/></mask></defs><g id="chart"><circle cx="250" cy="150" r="124.667" fill="#fff"/><g id="slices"><path fill="#b22222" stroke="#fff" stroke-width="2" d="M 261.4624153612051 60.73291180907037 A 90 90 0 0 0 250 60 L 250 26.333333333333343 A 123.66666666666666 123.66666666666666 0 0 1 265.7502077741003 27.34040844875966 Z" mask="url(#slice-mask-57b0b9dc-95fc-49ac-9e20-b130b6639533-0)"/><path fill="#f4a460" stroke="#fff" stroke-width="2" d="M 307.85088487178854 81.05600011929197 A 90 90 0 0 0 261.4624153612051 60.73291180907037 L 265.7502077741003 27.34040844875966 A 123.66666666666666 123.66666666666666 0 0 1 329.49140106456866 55.265837200953044 Z" mask="url(#slice-mask-57b0b9dc-95fc-49ac-9e20-b130b6639533-1)"/><path fill="#3cb371" stroke="#fff" stroke-width="2" d="M 330.13834180359106 109.03847936207922 A 90 90 0 0 0 307.85088487178854 81.05600011929197 L 329.49140106456866 55.265837200953044 A 123.66666666666666 123.66666666666666 0 0 1 360.116017811601 93.71583645678291 Z" mask="url(#slice-mask-57b0b9dc-95fc-49ac-9e20-b130b6639533-2)"/><path fill="#00bfff" stroke="#fff" stroke-width="2" d="M 249.99999999999997 60 A 90 90 0 1 0 330.13834180359106 109.03847936207922 L 360.116017811601 93.71583645678291 A 123.66666666666666 123.66666666666666 0 1 1 249.99999999999997 26.333333333333343 Z" mask="url(#slice-mask-57b0b9dc-95fc-49ac-9e20-b130b6639533-3)"/><line x1="257.827" x2="258.593" y1="27.583" y2="15.608" stroke="#b22222" stroke-width="1"/><text x="258.848" y="11.616" alignment-baseline="central" font-family="Roboto Medium" font-size="12" text-anchor="start">ERROR</text><line x1="299.224" x2="304.04" y1="37.643" y2="26.652" stroke="#f4a460" stroke-width="1"/><text x="305.645" y="22.988" alignment-baseline="central" font-family="Roboto Medium" font-size="12" text-anchor="start">WARNING</text><line x1="345.951" x2="355.338" y1="73.577" y2="66.101" stroke="#3cb371" stroke-width="1"/><text x="358.467" y="63.609" alignment-baseline="central" font-family="Roboto Medium" font-size="12" text-anchor="start">SUGGESTION</text><line x1="185.974" x2="179.71" y1="254.631" y2="264.867" stroke="#00bfff" stroke-width="1"/><text x="177.622" y="268.279" alignment-baseline="central" font-family="Roboto Medium" font-size="12" text-anchor="end">HINT</text></g></g></svg>